{
  "accessors": [
    {
      "bufferView": 2,
      "componentType": 5126,
      "count": 65532,
      "max": [
        0.034495998173952103,
        0.058647997677326202,
        0.16535300016403198
      ],
      "min": [
        0,
        0,
        0
      ],
      "type": "VEC3"
    },
    {
      "bufferView": 2,
      "byteOffset": 786384,
      "componentType": 5126,
      "count": 65532,
      "max": [
        0.99999964237213135,
        0.99999076128005981,
        0.99992877244949341
      ],
      "min": [
        -0.99999988079071045,
        -0.99999290704727173,
        -0.99997198581695557
      ],
      "type": "VEC3"
    },
    {
      "bufferView": 3,
      "componentType": 5126,
      "count": 65532,
      "max": [
        0.99673092365264893,
        0.9999995231628418,
        0.99999982118606567,
        1
      ],
      "min": [
        -0.99999970197677612,
        -0.99997764825820923,
        -0.99999445676803589,
        1
      ],
      "type": "VEC4"
    },
    {
      "bufferView": 3,
      "byteOffset": 1048512,
      "componentType": 5126,
      "count": 65532,
      "max": [
        1,
        1,
        1,
        1
      ],
      "min": [
        1,
        1,
        1,
        1
      ],
      "type": "VEC4"
    },
    {
      "bufferView": 1,
      "componentType": 5126,
      "count": 65532,
      "max": [
        0.98992401361465454,
        0.99541497230529785
      ],
      "min": [
        0.0026899999938905239,
        0.0027590000536292791
      ],
      "type": "VEC2"
    },
    {
      "bufferView": 0,
      "componentType": 5125,
      "count": 354645,
      "max": [
        65531
      ],
      "min": [
        0
      ],
      "type": "SCALAR"
    },
    {
      "bufferView": 2,
      "byteOffset": 1572768,
      "componentType": 5126,
      "count": 614,
      "max": [
        0.031518001109361649,
        0.055718999356031418,
        0.1653439998626709
      ],
      "min": [
        0.002216000109910965,
        0.002198999747633934,
        0
      ],
      "type": "VEC3"
    },
    {
      "bufferView": 2,
      "byteOffset": 1580136,
      "componentType": 5126,
      "count": 614,
      "max": [
        0.9499129056930542,
        0.99931025505065918,
        0.99368911981582642
      ],
      "min": [
        -0.94651448726654053,
        -0.84261298179626465,
        -0.99993497133255005
      ],
      "type": "VEC3"
    },
    {
      "bufferView": 3,
      "byteOffset": 2097024,
      "componentType": 5126,
      "count": 614,
      "max": [
        0.98965287208557129,
        0.73846405744552612,
        0.9986424446105957,
        1
      ],
      "min": [
        -0.99993091821670532,
        -0.96725869178771973,
        -0.69718891382217407,
        1
      ],
      "type": "VEC4"
    },
    {
      "bufferView": 3,
      "byteOffset": 2106848,
      "componentType": 5126,
      "count": 614,
      "max": [
        1,
        1,
        1,
        1
      ],
      "min": [
        1,
        1,
        1,
        1
      ],
      "type": "VEC4"
    },
    {
      "bufferView": 1,
      "byteOffset": 524256,
      "componentType": 5126,
      "count": 614,
      "max": [
        0.78248798847198486,
        0.99648499488830566
      ],
      "min": [
        0.11943099647760391,
        0.0075840000063180923
      ],
      "type": "VEC2"
    },
    {
      "bufferView": 0,
      "byteOffset": 1418580,
      "componentType": 5125,
      "count": 1755,
      "max": [
        613
      ],
      "min": [
        0
      ],
      "type": "SCALAR"
    }
  ],
  "asset": {
    "extras": {
      "author": "mselgeziry (https://sketchfab.com/mselgeziry)",
      "license": "CC-BY-4.0 (http://creativecommons.org/licenses/by/4.0/)",
      "source": "https://sketchfab.com/models/ebbb8d0d9da84030b4345d94750e5acd",
      "title": "3D model of an ancient Egyptian statue"
    },
    "generator": "Sketchfab-3.19.6",
    "version": "2.0"
  },
  "bufferViews": [
    {
      "buffer": 0,
      "byteLength": 1425600,
      "byteOffset": 0,
      "name": "floatBufferViews",
      "target": 34963
    },
    {
      "buffer": 0,
      "byteLength": 529168,
      "byteOffset": 1425600,
      "byteStride": 8,
      "name": "floatBufferViews",
      "target": 34962
    },
    {
      "buffer": 0,
      "byteLength": 1587504,
      "byteOffset": 1954768,
      "byteStride": 12,
      "name": "floatBufferViews",
      "target": 34962
    },
    {
      "buffer": 0,
      "byteLength": 2116672,
      "byteOffset": 3542272,
      "byteStride": 16,
      "name": "floatBufferViews",
      "target": 34962
    }
  ],
  "buffers": [
    {
      "byteLength": 5658944,
      "uri": "scene.bin"
    }
  ],
  "images": [
    {
      "uri": "textures/material_0_baseColor.jpeg"
    },
    {
      "uri": "textures/material_0_metallicRoughness.png"
    }
  ],
  "materials": [
    {
      "doubleSided": true,
      "emissiveFactor": [
        0,
        0,
        0
      ],
      "name": "material_0",
      "pbrMetallicRoughness": {
        "baseColorFactor": [
          1,
          1,
          1,
          1
        ],
        "baseColorTexture": {
          "index": 0,
          "texCoord": 0
        },
        "metallicFactor": 0,
        "metallicRoughnessTexture": {
          "index": 1,
          "texCoord": 0
        },
        "roughnessFactor": 1
      }
    }
  ],
  "meshes": [
    {
      "primitives": [
        {
          "attributes": {
            "COLOR_0": 3,
            "NORMAL": 1,
            "POSITION": 0,
            "TANGENT": 2,
            "TEXCOORD_0": 4
          },
          "indices": 5,
          "material": 0,
          "mode": 4
        }
      ]
    },
    {
      "primitives": [
        {
          "attributes": {
            "COLOR_0": 9,
            "NORMAL": 7,
            "POSITION": 6,
            "TANGENT": 8,
            "TEXCOORD_0": 10
          },
          "indices": 11,
          "material": 0,
          "mode": 4
        }
      ]
    }
  ],
  "nodes": [
    {
      "children": [
        1
      ],
      "name": "RootNode (gltf orientation matrix)",
      "rotation": [
        -0.70710678118654746,
        -0,
        -0,
        0.70710678118654757
      ]
    },
    {
      "children": [
        2
      ],
      "matrix": [
        1,
        0,
        0,
        0,
        0,
        0.99999982118606567,
        0.00059929967392235994,
        0,
        0,
        -0.00059929967392235994,
        0.99999982118606567,
        0,
        0,
        2.2582000838156091e-06,
        9.9010003395960666e-07,
        1
      ],
      "name": "RootNode (model correction matrix)"
    },
    {
      "children": [
        3
      ],
      "matrix": [
        1,
        0,
        0,
        0,
        0,
        1,
        0,
        0,
        0,
        0,
        1,
        0,
        -0.031201999634504318,
        -0.030974999070167542,
        -0.078907996416091919,
        1
      ],
      "name": "final.obj.cleaner.materialmerger.gles"
    },
    {
      "children": [
        4,
        5
      ],
      "name": ""
    },
    {
      "mesh": 0,
      "name": ""
    },
    {
      "mesh": 1,
      "name": ""
    }
  ],
  "samplers": [
    {
      "magFilter": 9729,
      "minFilter": 9987,
      "wrapS": 10497,
      "wrapT": 10497
    },
    {
      "magFilter": 9729,
      "minFilter": 9987,
      "wrapS": 33071,
      "wrapT": 10497
    }
  ],
  "scene": 0,
  "scenes": [
    {
      "name": "OSG_Scene",
      "nodes": [
        0
      ]
    }
  ],
  "textures": [
    {
      "sampler": 0,
      "source": 0
    },
    {
      "sampler": 1,
      "source": 1
    }
  ]
}

